<svg xmlns="http://www.w3.org/2000/svg" viewBox="0 0 1001 222" fill="currentColor" role="img" aria-label="KOIOS">
<path fill-rule="evenodd" d="M898.0 1.5L865.0 8.5L849.0 16.5L835.5 28.0L826.5 42.0L822.5 57.0L822.5 68.0L826.5 84.0L837.0 99.5L857.0 110.5L878.0 115.5L927.0 119.5L954.0 126.5L966.5 137.0L969.5 143.0L969.5 166.0L964.5 174.0L954.0 182.5L939.0 188.5L922.0 191.5L890.0 190.5L875.0 186.5L860.0 178.5L854.5 173.0L850.0 163.5L822.5 167.0L825.5 177.0L833.5 191.0L852.0 206.5L874.0 215.5L905.0 219.5L932.0 218.5L946.0 215.5L958.0 211.5L978.0 199.5L993.5 180.0L997.5 169.0L998.5 149.0L996.5 137.0L990.5 123.0L979.0 109.5L970.0 103.5L940.0 93.5L874.0 86.5L858.0 80.5L853.5 76.0L850.5 59.0L856.5 46.0L866.0 38.5L877.0 33.5L896.0 29.5L920.0 29.5L943.0 34.5L958.0 43.5L966.0 56.5L993.5 53.0L990.5 42.0L982.5 29.0L962.0 12.5L939.0 4.5L899.0 1.5ZM328.0 3.5L303.0 8.5L282.0 18.5L268.0 28.5L255.5 41.0L244.5 56.0L233.5 81.0L229.5 103.0L229.5 120.0L233.5 141.0L241.5 161.0L252.5 178.0L266.0 192.5L296.0 211.5L320.0 218.5L333.0 219.5L355.0 218.5L379.0 211.5L402.0 198.5L420.5 181.0L432.5 164.0L440.5 146.0L445.5 122.0L445.5 100.0L440.5 77.0L432.5 59.0L422.5 44.0L405.0 26.5L390.0 16.5L372.0 8.5L357.0 4.5L329.0 3.5ZM665.0 3.5L640.0 8.5L624.0 15.5L605.0 28.5L591.5 42.0L580.5 58.0L572.5 75.0L567.5 96.0L566.5 119.0L569.5 138.0L576.5 157.0L583.5 170.0L603.0 192.5L633.0 211.5L657.0 218.5L669.0 219.5L692.0 218.5L716.0 211.5L735.0 201.5L757.5 181.0L770.5 162.0L776.5 149.0L782.5 123.0L782.5 99.0L779.5 83.0L768.5 57.0L753.5 37.0L742.0 26.5L727.0 16.5L709.0 8.5L694.0 4.5L666.0 3.5ZM2.0 8.5L1.5 73.0L5.5 82.0L18.0 90.5L32.0 90.5L38.0 87.5L108.5 9.0L75.0 8.5L37.5 53.0L34.0 56.5L27.0 56.5L26.5 10.0L25.0 8.5L3.0 8.5ZM174.0 9.5L166.5 15.0L109.5 77.0L84.5 105.0L82.5 110.0L83.5 118.0L87.5 123.0L170.0 214.5L205.5 214.0L121.5 120.0L118.5 115.0L118.5 109.0L207.5 10.0L175.0 9.5ZM494.0 9.5L494.0 215.5L520.5 215.0L520.5 10.0L495.0 9.5ZM327.0 31.5L299.0 40.5L283.0 52.5L272.5 64.0L262.5 82.0L259.5 92.0L257.5 118.0L261.5 138.0L269.5 154.0L278.5 166.0L289.0 175.5L306.0 185.5L330.0 191.5L358.0 189.5L374.0 183.5L390.0 172.5L403.5 158.0L411.5 144.0L417.5 123.0L418.5 107.0L415.5 89.0L407.5 71.0L388.0 48.5L378.0 41.5L359.0 33.5L328.0 31.5ZM664.0 31.5L653.0 33.5L636.0 40.5L612.5 60.0L605.5 70.0L597.5 88.0L594.5 101.0L594.5 121.0L597.5 135.0L604.5 151.0L620.0 170.5L643.0 185.5L667.0 191.5L691.0 190.5L704.0 186.5L722.0 176.5L736.5 163.0L751.5 136.0L754.5 124.0L754.5 99.0L744.5 71.0L724.0 47.5L696.0 33.5L665.0 31.5ZM22.0 132.5L11.0 136.5L4.5 143.0L1.5 150.0L2.0 214.5L25.0 214.5L26.5 213.0L27.0 167.5L34.0 167.5L74.0 214.5L108.5 214.0L40.0 137.5L33.0 133.5L23.0 132.5Z"></path>
</svg>