<svg xmlns="http://www.w3.org/2000/svg" viewBox="0 0 64 64">
  <rect width="64" height="64" rx="14" fill="#5B112F"/>
  <!-- brand K from the founders' original logo artwork (square glyph, 247.28u) -->
  <g fill="#F3EFE9" transform="translate(13,13) scale(0.15364) translate(-361.96,-173.98)">
    <path d="M362.05,216.54c-0.01,8.97-0.02,17.94,0.04,26.9c0.09,13.52,6.27,23.04,17.85,27.52
      c11.53,4.46,24.11,1.39,32.83-8.03c12.14-13.09,27.48-32.83,39.55-45.99c6.6-7.2,13.2-14.4,19.81-21.59
      c5.85-6.36,11.72-12.7,18.19-19.68l1.53-1.65c-0.92,0-1.84-0.01-2.75-0.01c-13.3-0.04-25.86-0.07-38.13,0.22
      c-0.44,0.08-1.96,0.9-3.87,2.95c-2.83,3.04-5.63,6.11-8.43,9.18l-36.93,45.33h-9.37l-0.05-4.87c-0.01-1.37-0.37-40.14-0.19-51.29
      c0.01-0.62-0.03-1.03-0.07-1.29c-0.24-0.04-0.62-0.09-1.18-0.06c-9.41,0.17-17.91,0.28-26.54-0.05c-0.2-0.01-0.38-0.01-0.54-0.01
      c-1.03,0-1.49,0.13-1.55,0.09c-0.08,0.19-0.3,0.88-0.28,2.7C362.08,187.94,362.07,205.53,362.05,216.54z"/>
    <path d="M575.09,213.81l15.93-17.72c5.5-6.12,10.96-12.27,16.79-18.85l1.43-1.62c-1.19,0.01-2.38,0.01-3.55,0.02
      c-11.39,0.06-22.15,0.12-32.95-0.2c-4.86-0.17-7.78,1.16-10.75,4.83c-3.97,4.91-8.32,9.52-12.53,13.99
      c-1.96,2.09-3.93,4.17-5.86,6.29l-19.78,21.69c-18.18,19.91-40.26,43.79-58.59,64.17c-7.31,8.13-7.65,15.62-1.03,22.92
      c32.06,35.37,67.75,77.22,99.09,111.34c0.21,0.23,0.39,0.4,0.58,0.59h44.42l-16.13-17.61c-26.67-29.12-57.53-65.8-84.81-95.27
      c-4.56-4.92-8.18-11.08-0.48-19.49C528.67,265.09,553.88,237.4,575.09,213.81z"/>
    <path d="M472.13,400.59c-6.61-7.19-13.21-14.39-19.81-21.59c-12.07-13.16-27.41-32.89-39.55-45.99
      c-8.73-9.42-21.31-12.49-32.83-8.03c-11.58,4.48-17.75,14-17.85,27.52c-0.06,8.97-0.05,17.93-0.04,26.9
      c0.01,11.01,0.03,28.6-0.09,39.61c-0.01,1.16,0.07,1.83,0.16,2.24h29.99c0.02-0.23,0.03-0.5,0.03-0.86
      c-0.18-11.15,0.17-49.92,0.19-51.29l0.05-4.87h9.37l36.93,45.33c2.8,3.07,5.6,6.14,8.43,9.18c1.21,1.3,2.23,2.07,2.95,2.5h41.18
      l-0.91-0.98C483.85,413.28,477.98,406.95,472.13,400.59z"/>
  </g>
</svg>
